<svg id="visual" viewBox="0 0 900 600" width="900" height="600" xmlns="http://www.w3.org/2000/svg" xmlns:xlink="http://www.w3.org/1999/xlink" version="1.1"><path d="M0 453L15 454.5C30 456 60 459 90 452.7C120 446.3 150 430.7 180 433.3C210 436 240 457 270 458.8C300 460.7 330 443.3 360 441.3C390 439.3 420 452.7 450 459.5C480 466.3 510 466.7 540 458.7C570 450.7 600 434.3 630 427.8C660 421.3 690 424.7 720 423.7C750 422.7 780 417.3 810 426.8C840 436.3 870 460.7 885 472.8L900 485L900 601L885 601C870 601 840 601 810 601C780 601 750 601 720 601C690 601 660 601 630 601C600 601 570 601 540 601C510 601 480 601 450 601C420 601 390 601 360 601C330 601 300 601 270 601C240 601 210 601 180 601C150 601 120 601 90 601C60 601 30 601 15 601L0 601Z" fill="#000080"></path><path d="M0 494L15 497.2C30 500.3 60 506.7 90 498.5C120 490.3 150 467.7 180 466C210 464.3 240 483.7 270 487.8C300 492 330 481 360 481.7C390 482.3 420 494.7 450 492C480 489.3 510 471.7 540 461.2C570 450.7 600 447.3 630 454C660 460.7 690 477.3 720 487.2C750 497 780 500 810 501.2C840 502.3 870 501.7 885 501.3L900 501L900 601L885 601C870 601 840 601 810 601C780 601 750 601 720 601C690 601 660 601 630 601C600 601 570 601 540 601C510 601 480 601 450 601C420 601 390 601 360 601C330 601 300 601 270 601C240 601 210 601 180 601C150 601 120 601 90 601C60 601 30 601 15 601L0 601Z" fill="#04158d"></path><path d="M0 494L15 499.7C30 505.3 60 516.7 90 515.7C120 514.7 150 501.3 180 503.5C210 505.7 240 523.3 270 523C300 522.7 330 504.3 360 503C390 501.7 420 517.3 450 517.7C480 518 510 503 540 504.2C570 505.3 600 522.7 630 523.2C660 523.7 690 507.3 720 500.5C750 493.7 780 496.3 810 495.5C840 494.7 870 490.3 885 488.2L900 486L900 601L885 601C870 601 840 601 810 601C780 601 750 601 720 601C690 601 660 601 630 601C600 601 570 601 540 601C510 601 480 601 450 601C420 601 390 601 360 601C330 601 300 601 270 601C240 601 210 601 180 601C150 601 120 601 90 601C60 601 30 601 15 601L0 601Z" fill="#092699"></path><path d="M0 535L15 534.3C30 533.7 60 532.3 90 539C120 545.7 150 560.3 180 564.2C210 568 240 561 270 555.7C300 550.3 330 546.7 360 546.8C390 547 420 551 450 548.8C480 546.7 510 538.3 540 539.8C570 541.3 600 552.7 630 555.5C660 558.3 690 552.7 720 554.5C750 556.3 780 565.7 810 566.5C840 567.3 870 559.7 885 555.8L900 552L900 601L885 601C870 601 840 601 810 601C780 601 750 601 720 601C690 601 660 601 630 601C600 601 570 601 540 601C510 601 480 601 450 601C420 601 390 601 360 601C330 601 300 601 270 601C240 601 210 601 180 601C150 601 120 601 90 601C60 601 30 601 15 601L0 601Z" fill="#1034a6"></path></svg>